<mxfile host="app.diagrams.net" modified="2022-02-11T05:38:31.717Z" agent="5.0 (Windows NT 10.0; Win64; x64) AppleWebKit/537.36 (KHTML, like Gecko) Chrome/98.0.4758.82 Safari/537.36" etag="iVDNPj_54V90ugvHf3cc" version="16.5.5" type="github">
  <diagram id="cwuvFJKjf5oF3mDJdC54" name="Page-1">
    <mxGraphModel dx="774" dy="467" grid="1" gridSize="10" guides="1" tooltips="1" connect="1" arrows="1" fold="1" page="1" pageScale="1" pageWidth="850" pageHeight="1100" math="0" shadow="0">
      <root>
        <mxCell id="0" />
        <mxCell id="1" parent="0" />
        <mxCell id="l-uQmho8uu1Q38I_h6bm-10" style="edgeStyle=orthogonalEdgeStyle;rounded=0;orthogonalLoop=1;jettySize=auto;html=1;entryX=0.5;entryY=1;entryDx=0;entryDy=0;fontStyle=1" parent="1" source="l-uQmho8uu1Q38I_h6bm-1" target="l-uQmho8uu1Q38I_h6bm-2" edge="1">
          <mxGeometry relative="1" as="geometry" />
        </mxCell>
        <mxCell id="l-uQmho8uu1Q38I_h6bm-11" style="edgeStyle=orthogonalEdgeStyle;rounded=0;orthogonalLoop=1;jettySize=auto;html=1;entryX=0.5;entryY=1;entryDx=0;entryDy=0;fontStyle=1" parent="1" source="l-uQmho8uu1Q38I_h6bm-1" target="l-uQmho8uu1Q38I_h6bm-3" edge="1">
          <mxGeometry relative="1" as="geometry" />
        </mxCell>
        <mxCell id="l-uQmho8uu1Q38I_h6bm-29" value="" style="edgeStyle=orthogonalEdgeStyle;rounded=0;orthogonalLoop=1;jettySize=auto;html=1;exitX=1;exitY=0.25;exitDx=0;exitDy=0;fontStyle=1" parent="1" source="l-uQmho8uu1Q38I_h6bm-1" edge="1">
          <mxGeometry relative="1" as="geometry">
            <mxPoint x="680" y="250" as="targetPoint" />
            <Array as="points">
              <mxPoint x="520" y="250" />
            </Array>
          </mxGeometry>
        </mxCell>
        <mxCell id="l-uQmho8uu1Q38I_h6bm-1" value="&lt;font style=&quot;font-size: 14px&quot;&gt;Datashare service&lt;/font&gt;" style="rounded=1;whiteSpace=wrap;html=1;fontStyle=1" parent="1" vertex="1">
          <mxGeometry x="340" y="235" width="180" height="95" as="geometry" />
        </mxCell>
        <mxCell id="l-uQmho8uu1Q38I_h6bm-2" value="Policy Manager Service" style="rounded=1;whiteSpace=wrap;html=1;fontStyle=1" parent="1" vertex="1">
          <mxGeometry x="210" y="40" width="120" height="60" as="geometry" />
        </mxCell>
        <mxCell id="l-uQmho8uu1Q38I_h6bm-3" value="Key Manager Service" style="rounded=1;whiteSpace=wrap;html=1;fontStyle=1" parent="1" vertex="1">
          <mxGeometry x="510" y="40" width="120" height="60" as="geometry" />
        </mxCell>
        <mxCell id="l-uQmho8uu1Q38I_h6bm-7" style="edgeStyle=orthogonalEdgeStyle;rounded=0;orthogonalLoop=1;jettySize=auto;html=1;entryX=0;entryY=0.5;entryDx=0;entryDy=0;fontStyle=1" parent="1" source="l-uQmho8uu1Q38I_h6bm-4" target="l-uQmho8uu1Q38I_h6bm-1" edge="1">
          <mxGeometry relative="1" as="geometry" />
        </mxCell>
        <mxCell id="l-uQmho8uu1Q38I_h6bm-15" value="&lt;br&gt;" style="edgeLabel;html=1;align=center;verticalAlign=middle;resizable=0;points=[];fontStyle=1" parent="l-uQmho8uu1Q38I_h6bm-7" vertex="1" connectable="0">
          <mxGeometry x="-0.4293" y="-24" relative="1" as="geometry">
            <mxPoint x="-36" y="-24" as="offset" />
          </mxGeometry>
        </mxCell>
        <mxCell id="l-uQmho8uu1Q38I_h6bm-4" value="ABIS Handler Stage" style="rounded=1;whiteSpace=wrap;html=1;fontStyle=1" parent="1" vertex="1">
          <mxGeometry y="155" width="110" height="60" as="geometry" />
        </mxCell>
        <mxCell id="l-uQmho8uu1Q38I_h6bm-9" style="edgeStyle=orthogonalEdgeStyle;rounded=0;orthogonalLoop=1;jettySize=auto;html=1;entryX=0;entryY=0.5;entryDx=0;entryDy=0;fontStyle=1" parent="1" source="l-uQmho8uu1Q38I_h6bm-5" target="l-uQmho8uu1Q38I_h6bm-1" edge="1">
          <mxGeometry relative="1" as="geometry" />
        </mxCell>
        <mxCell id="l-uQmho8uu1Q38I_h6bm-5" value="Verification Stage" style="rounded=1;whiteSpace=wrap;html=1;fontStyle=1" parent="1" vertex="1">
          <mxGeometry y="350" width="110" height="60" as="geometry" />
        </mxCell>
        <mxCell id="l-uQmho8uu1Q38I_h6bm-8" style="edgeStyle=orthogonalEdgeStyle;rounded=0;orthogonalLoop=1;jettySize=auto;html=1;entryX=0;entryY=0.5;entryDx=0;entryDy=0;fontStyle=1" parent="1" source="l-uQmho8uu1Q38I_h6bm-6" target="l-uQmho8uu1Q38I_h6bm-1" edge="1">
          <mxGeometry relative="1" as="geometry">
            <Array as="points">
              <mxPoint x="225" y="283" />
            </Array>
          </mxGeometry>
        </mxCell>
        <mxCell id="l-uQmho8uu1Q38I_h6bm-6" value="Manual Adjudication Stage" style="rounded=1;whiteSpace=wrap;html=1;fontStyle=1" parent="1" vertex="1">
          <mxGeometry y="250" width="110" height="60" as="geometry" />
        </mxCell>
        <mxCell id="l-uQmho8uu1Q38I_h6bm-20" style="edgeStyle=orthogonalEdgeStyle;rounded=0;orthogonalLoop=1;jettySize=auto;html=1;fontStyle=1;exitX=0.5;exitY=0;exitDx=0;exitDy=0;" parent="1" source="l-uQmho8uu1Q38I_h6bm-19" edge="1">
          <mxGeometry relative="1" as="geometry">
            <mxPoint x="430" y="370" as="sourcePoint" />
            <mxPoint x="425" y="330" as="targetPoint" />
            <Array as="points">
              <mxPoint x="425" y="330" />
              <mxPoint x="425" y="330" />
            </Array>
          </mxGeometry>
        </mxCell>
        <mxCell id="l-uQmho8uu1Q38I_h6bm-19" value="Credential Service" style="rounded=1;whiteSpace=wrap;html=1;fontStyle=1" parent="1" vertex="1">
          <mxGeometry x="365" y="380" width="120" height="60" as="geometry" />
        </mxCell>
        <mxCell id="l-uQmho8uu1Q38I_h6bm-25" value="" style="edgeStyle=orthogonalEdgeStyle;rounded=0;orthogonalLoop=1;jettySize=auto;html=1;exitX=0.5;exitY=0;exitDx=0;exitDy=0;fontStyle=1" parent="1" source="l-uQmho8uu1Q38I_h6bm-21" target="l-uQmho8uu1Q38I_h6bm-19" edge="1">
          <mxGeometry x="-0.8202" y="50" relative="1" as="geometry">
            <Array as="points">
              <mxPoint x="120" y="510" />
              <mxPoint x="425" y="510" />
            </Array>
            <mxPoint as="offset" />
          </mxGeometry>
        </mxCell>
        <mxCell id="l-uQmho8uu1Q38I_h6bm-21" value="ID Repository&amp;nbsp; Service" style="rounded=1;whiteSpace=wrap;html=1;fontStyle=1" parent="1" vertex="1">
          <mxGeometry x="60" y="580" width="120" height="60" as="geometry" />
        </mxCell>
        <mxCell id="l-uQmho8uu1Q38I_h6bm-24" value="" style="edgeStyle=orthogonalEdgeStyle;rounded=0;orthogonalLoop=1;jettySize=auto;html=1;exitX=0.5;exitY=0;exitDx=0;exitDy=0;entryX=0.5;entryY=1;entryDx=0;entryDy=0;fontStyle=1" parent="1" source="l-uQmho8uu1Q38I_h6bm-22" target="l-uQmho8uu1Q38I_h6bm-19" edge="1">
          <mxGeometry x="-0.7193" y="-20" relative="1" as="geometry">
            <mxPoint x="425" y="593" as="sourcePoint" />
            <mxPoint x="425" y="510" as="targetPoint" />
            <mxPoint as="offset" />
          </mxGeometry>
        </mxCell>
        <mxCell id="l-uQmho8uu1Q38I_h6bm-22" value="Printing Stage" style="rounded=1;whiteSpace=wrap;html=1;fontStyle=1" parent="1" vertex="1">
          <mxGeometry x="220" y="580" width="120" height="60" as="geometry" />
        </mxCell>
        <mxCell id="l-uQmho8uu1Q38I_h6bm-27" value="" style="edgeStyle=orthogonalEdgeStyle;rounded=0;orthogonalLoop=1;jettySize=auto;html=1;exitX=0.5;exitY=0;exitDx=0;exitDy=0;entryX=0.5;entryY=1;entryDx=0;entryDy=0;fontStyle=1" parent="1" source="l-uQmho8uu1Q38I_h6bm-23" target="l-uQmho8uu1Q38I_h6bm-19" edge="1">
          <mxGeometry x="-0.8588" y="-10" relative="1" as="geometry">
            <mxPoint x="510" y="490" as="targetPoint" />
            <Array as="points">
              <mxPoint x="720" y="510" />
              <mxPoint x="425" y="510" />
            </Array>
            <mxPoint as="offset" />
          </mxGeometry>
        </mxCell>
        <mxCell id="l-uQmho8uu1Q38I_h6bm-23" value="Print Service" style="rounded=1;whiteSpace=wrap;html=1;fontStyle=1" parent="1" vertex="1">
          <mxGeometry x="660" y="570" width="120" height="60" as="geometry" />
        </mxCell>
        <mxCell id="l-uQmho8uu1Q38I_h6bm-35" style="edgeStyle=orthogonalEdgeStyle;rounded=0;orthogonalLoop=1;jettySize=auto;html=1;fontStyle=1" parent="1" target="l-uQmho8uu1Q38I_h6bm-19" edge="1">
          <mxGeometry relative="1" as="geometry">
            <mxPoint x="470" y="510" as="sourcePoint" />
            <Array as="points">
              <mxPoint x="425" y="510" />
            </Array>
          </mxGeometry>
        </mxCell>
        <mxCell id="l-uQmho8uu1Q38I_h6bm-38" value="" style="edgeStyle=orthogonalEdgeStyle;rounded=0;orthogonalLoop=1;jettySize=auto;html=1;entryX=0.5;entryY=1;entryDx=0;entryDy=0;fontStyle=1" parent="1" source="l-uQmho8uu1Q38I_h6bm-32" target="l-uQmho8uu1Q38I_h6bm-19" edge="1">
          <mxGeometry x="-0.3962" y="30" relative="1" as="geometry">
            <Array as="points">
              <mxPoint x="560" y="510" />
              <mxPoint x="425" y="510" />
            </Array>
            <mxPoint as="offset" />
          </mxGeometry>
        </mxCell>
        <mxCell id="l-uQmho8uu1Q38I_h6bm-32" value="Partner Manager&lt;br&gt;Service" style="rounded=1;whiteSpace=wrap;html=1;fontStyle=1" parent="1" vertex="1">
          <mxGeometry x="500" y="570" width="120" height="60" as="geometry" />
        </mxCell>
        <mxCell id="l-uQmho8uu1Q38I_h6bm-39" value="Object Store" style="sketch=0;outlineConnect=0;fontColor=#232F3E;gradientColor=none;fillColor=#3F8624;strokeColor=none;dashed=0;verticalLabelPosition=bottom;verticalAlign=top;align=center;html=1;fontSize=12;fontStyle=1;aspect=fixed;pointerEvents=1;shape=mxgraph.aws4.bucket_with_objects;" parent="1" vertex="1">
          <mxGeometry x="680" y="224" width="107.69" height="112" as="geometry" />
        </mxCell>
        <mxCell id="l-uQmho8uu1Q38I_h6bm-41" style="edgeStyle=orthogonalEdgeStyle;rounded=0;orthogonalLoop=1;jettySize=auto;html=1;fontStyle=1;" parent="1" edge="1">
          <mxGeometry relative="1" as="geometry">
            <mxPoint x="741" y="370" as="sourcePoint" />
            <mxPoint x="520" y="320" as="targetPoint" />
            <Array as="points">
              <mxPoint x="520" y="380" />
            </Array>
          </mxGeometry>
        </mxCell>
        <mxCell id="l-uQmho8uu1Q38I_h6bm-40" value="External Systems" style="rounded=1;whiteSpace=wrap;html=1;fontStyle=1" parent="1" vertex="1">
          <mxGeometry x="680" y="370" width="120" height="60" as="geometry" />
        </mxCell>
        <mxCell id="l-uQmho8uu1Q38I_h6bm-42" value="&lt;font style=&quot;font-size: 10px&quot;&gt;1&lt;/font&gt;" style="ellipse;whiteSpace=wrap;html=1;aspect=fixed;fontStyle=1" parent="1" vertex="1">
          <mxGeometry x="120" y="140" width="20" height="20" as="geometry" />
        </mxCell>
        <mxCell id="l-uQmho8uu1Q38I_h6bm-43" value="&lt;font style=&quot;font-size: 10px&quot;&gt;2&lt;/font&gt;" style="ellipse;whiteSpace=wrap;html=1;aspect=fixed;fontStyle=1" parent="1" vertex="1">
          <mxGeometry x="120" y="250" width="20" height="20" as="geometry" />
        </mxCell>
        <mxCell id="l-uQmho8uu1Q38I_h6bm-44" value="&lt;font style=&quot;font-size: 10px&quot;&gt;3&lt;/font&gt;" style="ellipse;whiteSpace=wrap;html=1;aspect=fixed;fontStyle=1" parent="1" vertex="1">
          <mxGeometry x="120" y="350" width="20" height="20" as="geometry" />
        </mxCell>
        <mxCell id="l-uQmho8uu1Q38I_h6bm-46" value="&lt;font style=&quot;font-size: 10px&quot;&gt;4&lt;/font&gt;" style="ellipse;whiteSpace=wrap;html=1;aspect=fixed;fontStyle=1" parent="1" vertex="1">
          <mxGeometry x="240" y="140" width="20" height="20" as="geometry" />
        </mxCell>
        <mxCell id="l-uQmho8uu1Q38I_h6bm-47" value="&lt;font style=&quot;font-size: 10px&quot;&gt;5&lt;/font&gt;" style="ellipse;whiteSpace=wrap;html=1;aspect=fixed;fontStyle=1" parent="1" vertex="1">
          <mxGeometry x="540" y="135" width="20" height="20" as="geometry" />
        </mxCell>
        <mxCell id="l-uQmho8uu1Q38I_h6bm-48" value="&lt;font style=&quot;font-size: 10px&quot;&gt;6&lt;/font&gt;" style="ellipse;whiteSpace=wrap;html=1;aspect=fixed;fontStyle=1" parent="1" vertex="1">
          <mxGeometry x="650" y="224" width="20" height="20" as="geometry" />
        </mxCell>
        <mxCell id="l-uQmho8uu1Q38I_h6bm-49" value="&lt;font style=&quot;font-size: 10px&quot;&gt;7&lt;/font&gt;" style="ellipse;whiteSpace=wrap;html=1;aspect=fixed;fontStyle=1" parent="1" vertex="1">
          <mxGeometry x="650" y="272.5" width="20" height="20" as="geometry" />
        </mxCell>
        <mxCell id="l-uQmho8uu1Q38I_h6bm-50" value="&lt;font style=&quot;font-size: 10px&quot;&gt;8&lt;/font&gt;" style="ellipse;whiteSpace=wrap;html=1;aspect=fixed;fontStyle=1" parent="1" vertex="1">
          <mxGeometry x="630" y="380" width="20" height="20" as="geometry" />
        </mxCell>
        <mxCell id="l-uQmho8uu1Q38I_h6bm-52" value="&lt;font style=&quot;font-size: 10px&quot;&gt;11&lt;/font&gt;" style="ellipse;whiteSpace=wrap;html=1;aspect=fixed;fontStyle=1" parent="1" vertex="1">
          <mxGeometry x="290" y="530" width="20" height="20" as="geometry" />
        </mxCell>
        <mxCell id="l-uQmho8uu1Q38I_h6bm-53" value="&lt;font style=&quot;font-size: 10px&quot;&gt;10&lt;/font&gt;" style="ellipse;whiteSpace=wrap;html=1;aspect=fixed;fontStyle=1" parent="1" vertex="1">
          <mxGeometry x="570" y="530" width="20" height="20" as="geometry" />
        </mxCell>
        <mxCell id="l-uQmho8uu1Q38I_h6bm-54" value="&lt;font style=&quot;font-size: 10px&quot;&gt;9&lt;/font&gt;" style="ellipse;whiteSpace=wrap;html=1;aspect=fixed;fontStyle=1" parent="1" vertex="1">
          <mxGeometry x="730" y="530" width="20" height="20" as="geometry" />
        </mxCell>
        <mxCell id="l-uQmho8uu1Q38I_h6bm-57" value="&lt;font style=&quot;font-size: 10px&quot;&gt;12&lt;/font&gt;" style="ellipse;whiteSpace=wrap;html=1;aspect=fixed;fontStyle=1" parent="1" vertex="1">
          <mxGeometry x="130" y="530" width="20" height="20" as="geometry" />
        </mxCell>
        <mxCell id="zeIMt0s8SkxRVTY2knL5-10" value="" style="endArrow=classic;html=1;rounded=0;fontSize=14;" parent="1" edge="1">
          <mxGeometry width="50" height="50" relative="1" as="geometry">
            <mxPoint x="690" y="296" as="sourcePoint" />
            <mxPoint x="520" y="296" as="targetPoint" />
          </mxGeometry>
        </mxCell>
      </root>
    </mxGraphModel>
  </diagram>
</mxfile>
